<?xml version="1.0" encoding="UTF-8"?>
<svg id="Layer_1" data-name="Layer 1" xmlns="http://www.w3.org/2000/svg" xmlns:xlink="http://www.w3.org/1999/xlink" viewBox="0 0 886.55 886.56">
  <defs>
    <style>
      .cls-1 {
        fill: url(#linear-gradient);
      }
    </style>
    <linearGradient id="linear-gradient" x1="127.9" y1="754.78" x2="758.65" y2="131.78" gradientUnits="userSpaceOnUse">
      <stop offset="0" stop-color="#fbd437"/>
      <stop offset=".01" stop-color="#fbd437"/>
      <stop offset=".09" stop-color="#fbd437"/>
      <stop offset=".43" stop-color="#f79c24"/>
      <stop offset=".53" stop-color="#f68b1f"/>
      <stop offset=".83" stop-color="#f15a52"/>
      <stop offset="1" stop-color="#ee252e"/>
    </linearGradient>
  </defs>
  <path class="cls-1" d="M443.28,0C198.47,0,0,198.47,0,443.28s198.47,443.28,443.28,443.28,443.27-198.47,443.27-443.28S688.09,0,443.28,0Zm-27.99,179.23c15.76-23.75,26.84-37.83,27.93-39.22h.04c.04-.05,.06-.09,.06-.09,0,0,.03,.04,.07,.09h.04c1.02,1.29,10.61,13.49,24.56,34.18,17.61,26.14,42.19,65.83,65.26,114.23-10.16,9.09-19.87,18.66-29.15,28.65-22.96,24.72-43.25,52.17-60.67,82.21-15.27-26.32-32.73-50.66-52.26-72.91-11.82-13.46-24.39-26.16-37.72-38.08,21.62-45.33,44.55-83.01,61.84-109.06Zm338.67,123.45c-14.35,23.58-23.21,50.66-28.46,78.15-7.07,36.92-3.6,74.17-8.94,111.29-11.96,83.1-53.11,166.09-110.35,229.78-32,35.61-69.03,65.19-108.82,85.39-.35,.18-.96,.47-1.79,.84-16.14,7.27-33.29,11.03-50.47,11.28-1.22,0-2.43,0-3.63,0-17.15-.26-34.28-4.02-50.4-11.28-.83-.37-1.44-.66-1.79-.84-37.18-18.87-71.94-45.94-102.44-78.45-60.56-64.54-104.31-150.56-116.73-236.72-5.35-37.12-1.87-74.37-8.94-111.29-5.26-27.49-14.1-54.57-28.47-78.15-8.77-14.42-24.28-35.3-44.95-45.91-.22-.11-.43-.21-.65-.32-.51-.25-1.01-.51-1.53-.75,200.06,34.89,304.21,143.85,357.75,258.21,52.9-112.98,155.21-220.68,350.57-256.9,3.6-1.75,6.12-2.32,7.18-1.31-21.77,10.22-38.06,32.06-47.14,46.98Z"/>
</svg>